<?xml version='1.0' encoding='utf-8'?>
<svg xmlns="http://www.w3.org/2000/svg" width="321px" height="229px" version="1.1" viewBox="287 833 321 229"> <g fill="#dcf6ff"> <path d="m286.09 832.56c-0.04962 1e-4 -0.0971 0.02-0.13214 0.0552-0.03492 0.03513-0.05451 0.08286-0.05439 0.1324l0.72998 232.75c3.1e-4 0.1032 0.08429 0.1868 0.18763 0.1863l325.72-1.0194c0.04953-1e-4 0.09716-0.02 0.13193-0.0553 0.0352-0.0352 0.0546-0.0828 0.05447-0.1324l-0.72987-232.75c-2.4e-4 -0.1031-0.08434-0.1866-0.1875-0.18625l-325.72 1.0208z"/> </g> <g fill="#004b70"> <path d="m380.42 877.98 54.232-0.0707 54.232-0.0703q0.09802 75.034 0.19628 150.07-54.233 0.0704-108.47 0.1416-0.09783-75.035-0.19585-150.07"/> </g> <g fill="#f5f5f5"> <path d="m392.47 1014.2c-4.0643 5e-3 -7.3656-3.2876-7.3709-7.3536l-0.1538-117.81c-0.00526-4.0656 3.2875-7.3655 7.3518-7.3707l84.675-0.11105c4.0659-0.00465 7.3653 3.2862 7.3706 7.352l0.11934 91.072-35.445 34.143-56.547 0.07354z"/> </g> <g fill="#00141e"> <path d="m402.61 870.44 64.063-0.08335q0.00891 6.8514 0.01788 13.703-32.032 0.04213-64.063 0.08368-0.00892-6.8514-0.01783-13.703"/> </g> <g fill="#69d2f4"> <path d="m395.24 894.89v2.5e-4l13.314-0.1227c0.35748-0.0034 0.64984 0.28383 0.65313 0.64113v3.7e-4l0.11225 12.145c0.00323 0.3573-0.28382 0.64976-0.64118 0.6532v2e-4l-13.314 0.123c-0.17169 0.0016-0.33697-0.06506-0.45947-0.1854-0.12244-0.1204-0.1922-0.2842-0.1938-0.4558v2e-4l-0.11223-12.146c-0.00153-0.17153 0.06513-0.33679 0.18543-0.45933 0.12023-0.12246 0.28423-0.19216 0.45586-0.19375v2.5e-4m0.01197 1.2942 0.64129-0.6532 0.11218 12.146-0.65325-0.6412 13.314-0.1234-0.64124 0.65334-0.11218-12.145 0.6532 0.6414-13.314 0.1223z"/> <path d="m395.43 915.62v4e-4l13.314-0.12295c0.35749-0.00329 0.64986 0.28382 0.65314 0.64125l6e-5 2.3e-4 0.11219 12.145c0.00323 0.3573-0.28376 0.65-0.64123 0.6533v2.6e-4l-13.314 0.12294c-0.17164 0.0017-0.33686-0.0652-0.45934-0.1853-0.1225-0.12026-0.19227-0.2843-0.19386-0.45595l6e-5 3.5e-4 -0.11224-12.146c-0.00159-0.1716 0.06506-0.3368 0.18542-0.45946 0.12024-0.12244 0.28418-0.19224 0.45587-0.19374v4e-4m0.0119 1.294 0.64125-0.6532 0.11217 12.146-0.65313-0.64113 13.314-0.12341-0.64117 0.65334-0.11225-12.145 0.65325 0.6412-13.314 0.12245z"/> <path d="m395.62 936.36v2.3e-4l13.314-0.1228c0.35743-0.0034 0.64983 0.2837 0.6532 0.6411v4e-4l0.11213 12.145c0.00335 0.3576-0.28376 0.6499-0.64118 0.65347v2.3e-4l-13.314 0.12294c-0.17163 0.00156-0.33693-0.06504-0.45943-0.18531-0.12248-0.12033-0.19218-0.2843-0.19377-0.45593v3.7e-4l-0.11218-12.146c-0.00159-0.17164 0.06505-0.33679 0.18525-0.45934 0.12035-0.12256 0.2843-0.19227 0.45598-0.19373v2.3e-4m0.0119 1.2941 0.64124-0.6531 0.11218 12.146-0.65314-0.6411 13.314-0.12317-0.64124 0.65307-0.11218-12.145 0.6532 0.6411-13.314 0.1226z"/> <path d="m395.82 957.1v3.7e-4l13.314-0.1228c0.35748-0.00367 0.6499 0.28357 0.65314 0.64099v2.4e-4l0.11224 12.145c0.0033 0.35754-0.28381 0.6499-0.64123 0.65334v3.5e-4l-13.314 0.12295c-0.1717 0.0017-0.33698-0.0651-0.45948-0.18533-0.12249-0.12037-0.1922-0.28417-0.19372-0.45607v5e-4l-0.11225-12.146c-0.00164-0.17165 0.06507-0.3368 0.18531-0.4595 0.12024-0.1223 0.2843-0.192 0.45592-0.1936v3.7e-4m0.0119 1.2942 0.64125-0.65346 0.11225 12.146-0.6532-0.64126 13.314-0.12317-0.64123 0.6532-0.11218-12.145 0.65313 0.64106-13.314 0.12286z"/> <path d="m396.01 977.83v3.4e-4l13.314-0.1231c0.35735-0.0033 0.64983 0.28383 0.65307 0.64113v4.7e-4l0.11223 12.145c0.00337 0.35744-0.28374 0.6499-0.64122 0.6532v2.6e-4l-13.314 0.12304c-0.17163 0.0016-0.33685-0.06506-0.45941-0.1853-0.1225-0.1201-0.1922-0.2842-0.19385-0.4558l8e-5 2.4e-4 -0.1122-12.146c-0.00158-0.17164 0.06507-0.3368 0.18537-0.45934 0.12023-0.12245 0.28423-0.19215 0.45593-0.19374v3.4e-4m0.0119 1.2941 0.64118-0.6532 0.1123 12.146-0.65326-0.64145 13.314-0.1233-0.64111 0.6534-0.11224-12.145 0.6532 0.64114-13.314 0.1226z"/> </g> <g fill="#9fc6d9"> <path d="m413.17 898.78 58.443-0.54216q0.039 4.1992 0.078 8.3984-29.222 0.2712-58.443 0.5426-0.039-4.1994-0.07795-8.3988"/> <path d="m413.36 919.05 58.443-0.5423 0.07793 8.3984-58.443 0.5424-0.07795-8.3985"/> <path d="m413.55 939.31 58.443-0.5422q0.03893 4.1992 0.07793 8.3982-29.222 0.27136-58.443 0.54267-0.03894-4.1994-0.07794-8.3987"/> <path d="m413.73 959.57 58.443-0.5422 0.07806 8.3983-58.443 0.54256-0.07794-8.3987"/> <path d="m413.92 979.83 58.443-0.54225q0.03894 4.1992 0.07794 8.3982-29.222 0.27155-58.443 0.54265-0.03907-4.1993-0.078-8.3986"/> </g> <g fill="#e1e1e1"> <path d="m484.47 979.99-28.128 0.03605c-4.066 6e-3 -7.3571 3.3054-7.3519 7.3711l0.03492 26.735 35.446-34.143z"/> </g> <g fill="#65a138"> <path d="m401.13 893.57-2.4139 13.245q14.44-8.3473 28.88-16.694-12.405 5.5848-24.81 11.169l-1.6568-7.72"/> <path d="m401.32 914.12-2.4139 13.245 28.88-16.695-24.81 11.17-1.6567-7.7197"/> <path d="m401.51 934.67-2.414 13.245q14.44-8.3472 28.88-16.694-12.405 5.585-24.81 11.17l-1.6567-7.7199"/> <path d="m401.7 955.22-2.4139 13.245 28.88-16.694-24.81 11.17-1.6567-7.7199"/> <path d="m401.89 975.76-1.2071 6.6225-1.207 6.6224q14.44-8.3474 28.88-16.695-12.405 5.5849-24.81 11.17-0.82837-3.86-1.6567-7.72"/> </g> <g fill="#ffb79f"> <path d="m482.47 936.15c1.0607 0.49256 1.6746 1.4901 1.8916 3.1154 0.05335 0.4122 0.12702 0.8441 0.16919 0.9647 0.04243 0.1204 0.07393 0.3435 0.07793 0.4971 0.00404 0.15355 0.07997 0.5298 0.16865 0.8357 0.35163 1.1992 0.45728 1.6774 0.47858 2.2207 0.01434 0.31663 0.05615 0.791 0.09454 1.0637 0.03083 0.27137 0.05225 0.5487 0.0409 0.61096-0.0127 0.0702 0.02295 0.26978 0.07727 0.45679 0.0542 0.18701 0.09289 0.37122 0.08429 0.41795-0.00855 0.0465 0.02533 0.21377 0.0838 0.3777 0.05072 0.16175 0.09277 0.4596 0.08037 0.65833-0.0114 0.54517 0.0791 1.5433 0.17854 1.9238 0.08296 0.3373 0.38251 1.4707 0.60431 2.3243 0.0661 0.25316 0.15283 0.52661 0.19568 0.59926 0.23377 0.437 0.41467 2.0395 0.34454 3.081-0.02367 0.34973-0.0235 0.74389 0.00171 0.8695 0.02387 0.13306 0.01722 0.38926-0.01691 0.57656-0.08867 0.4825-0.11737 2.7469-0.03577 3.0918 0.03516 0.1593 0.0779 0.49705 0.0973 0.74204 0.01935 0.24526 0.052 0.72571 0.06994 1.0669 0.02552 0.34289 0.06543 0.69656 0.09784 0.78259 0.06555 0.21337 0.01752 1.6613-0.08923 2.5513-0.09973 0.8507-0.10773 1.5093-0.03967 1.9727 0.02954 0.19044 0.03412 0.47278 0.00537 0.62878-0.02851 0.1554-0.03241 0.48486-0.01319 0.72962 0.01941 0.24524 0.00739 0.83824-0.0393 1.3126-0.03906 0.47605-0.06 0.8984-0.03742 0.95115 0.026 0.07725 0.01648 0.34875-0.12481 2.0856-0.09533 1.3104 0.05261 1.8205 0.53197 1.7956 0.19538-0.01245 0.8346-0.42625 0.85755-0.5509 0.00695-0.03895 0.13831-0.18408 0.29151-0.31702 0.15294-0.13283 0.38211-0.37268 0.5148-0.52527 0.40344-0.48926 0.99798-1.2737 1.081-1.4194 0.04554-0.07213 0.12275-0.18677 0.17305-0.24183 0.32061-0.34386 0.9422-1.3645 1.1043-1.8097 0.06677-0.1888 0.19384-0.4874 0.29194-0.6705 0.2634-0.5153 0.94817-2.3617 1.0309-2.8131 0.04926-0.2244 0.16223-0.5337 0.25598-0.6935 0.53998-0.88294 0.70789-1.3591 0.85303-2.4596 0.35072-2.5269 0.43712-3.5254 0.3584-3.8856-0.04352-0.2012-0.06836-0.68056-0.06232-1.0658 0.01594-0.5685 0.05457-0.7787 0.2143-1.1679 0.24151-0.61574 1.048-1.7232 1.5932-2.1948 0.70758-0.6106 1.6255-0.78844 2.3372-0.45665 0.34752 0.16821 0.90368 0.8656 0.8637 1.0838-0.01281 0.07006 0.02375 0.3103 0.07222 0.5282 0.0844 0.32933 0.07067 0.62474-0.06886 1.694-0.09874 0.71411-0.1651 1.5147-0.14209 1.7844 0.01515 0.2684-0.0025 0.7157-0.05408 0.9962-0.0512 0.28027-0.0697 0.7759-0.04254 1.1107 0.02717 0.3351 0.02295 0.7528-0.00848 0.92396-0.02509 0.18064-0.0481 0.48218-0.04485 0.68384 0.00682 0.2269-0.0879 0.70056-0.24824 1.2666-0.21276 0.7659-0.25354 1.0319-0.27014 1.7373-0.00872 0.7062-0.13166 1.4647-0.76484 4.962-0.88281 4.8601-0.67315 4.2869-2.0311 5.6796-0.96362 0.99843-1.046 1.0961-1.4538 1.6086-0.18872 0.239-0.53558 0.6825-0.78546 0.991-0.24164 0.30955-0.49774 0.60887-0.57288 0.6672-0.07368 0.0514-0.13763 0.136-0.14471 0.17494-0.00847 0.04676-0.13049 0.1853-0.26672 0.31296-0.21271 0.19485-0.96149 1.0312-1.5772 1.7555-0.19514 0.2299-1.1342 1.49-1.5273 2.054-0.32783 0.4709-0.62968 1.0191-0.6652 1.214-0.0158 0.08569-0.1046 0.26257-0.19543 0.40673-0.0893 0.13685-0.31097 0.6433-0.48792 1.1261-0.29225 0.7593-0.33423 0.94434-0.33063 1.3638 0.0058 0.27475 0.00618 0.66916 0.00513 0.8944 3.7e-4 0.21727 0.02667 0.5117 0.06488 0.6554 0.03174 0.13474 0.07172 0.3994 0.08704 0.57957 0.01526 0.17983 0.07 0.58433 0.13098 0.90933 0.06268 0.3171 0.11169 0.7529 0.11182 0.96994 0.01293 0.41296 0.17853 1.4411 0.2633 1.5936 0.0304 0.05383 0.11183 0.48718 0.17841 0.95813 0.17395 1.2473 0.23772 1.5566 0.31897 1.7726 0.04519 0.1047 0.07797 0.3202 0.08212 0.47374 0.00409 0.15393 0.09343 0.58876 0.19269 0.96936 0.10564 0.3893 0.17657 0.7484 0.16662 0.803-0.01013 0.05454 0.03022 0.2307 0.09002 0.3866 0.06007 0.15573 0.10304 0.3166 0.0957 0.3558-0.0269 0.1476 0.63637 2.587 0.7261 2.6677 0.0269 0.02927 0.05706 0.17187 0.05474 0.31592 0.01593 0.30895 0.21076 1.1333 0.32098 1.3225 0.04308 0.07264 0.08771 0.22544 0.09882 0.34034 0.0111 0.1146 0.078 0.31994 0.1344 0.45116 0.06426 0.13244 0.29193 0.86609 0.50744 1.6223 0.58252 2.0461 0.77594 2.4836 2.0093 4.5365 1.5413 2.5683 2.1121 3.2282 3.2761 3.8601 0.34455 0.18385 0.78327 0.42529 0.987 0.54309 0.19739 0.10886 0.64368 0.35156 0.98847 0.5354 0.34301 0.19153 0.66755 0.39586 0.72755 0.46326 0.0509 0.07385 0.1358 0.13757 0.1746 0.14465 0.03907 0.00705 0.34638 0.39345 0.6814 0.84925 0.33368 0.46386 0.6269 0.8397 0.65808 0.8452 0.02338 0.00403 0.21332 0.32874 0.42298 0.7212 0.20349 0.3834 0.39978 0.71704 0.42798 0.7384 0.02844 0.0211 0.23456 0.3889 0.45123 0.8312 0.21826 0.4342 0.54169 1.0408 0.72033 1.3392 0.17866 0.29835 0.349 0.64344 0.39106 0.7638 0.13556 0.40284 1.1242 2.2991 1.4915 2.8412 0.15125 0.229 0.37433 0.5917 0.4944 0.8152 0.3665 0.6782 1.1775 6.4315 0.312 6.3536-0.8731-0.0708-1.3685-0.4827-1.407-0.4738-3.2141 0.7266-3.229-2.4881-13.165-4.3094-9.6552-1.77-17.553-3.2501-17.547-3.2812 0.00715-0.039-0.05798-0.1233-0.15051-0.1884-0.08362-0.072-0.44201-0.355-0.78497-0.63525-0.3507-0.28161-0.86194-0.69715-1.1451-0.91005-0.2815-0.22044-0.5445-0.4537-0.58118-0.5167-0.03674-0.063-0.09051-0.1212-0.12934-0.1283-0.05456-0.01013-0.40868-0.3165-0.82665-0.7151-0.71283-0.67797-1.0818-1.0353-1.1659-1.1471-0.15051-0.1888-1.2368-1.0237-1.5658-1.2044-0.16138-0.08595-0.37158-0.21315-0.46912-0.29565-0.10541-0.0834-0.22924-0.1549-0.26824-0.16175-0.08558-0.01565-1.2683-0.85242-1.6036-1.1312-0.0976-0.082-0.37903-0.3027-0.63361-0.49436-0.2547-0.19128-0.5885-0.47778-0.74614-0.62744-0.1562-0.1575-0.38606-0.35266-0.52125-0.4498-0.12867-0.08804-0.3725-0.2936-0.54438-0.45377-0.17187-0.1604-0.48352-0.43469-0.70215-0.60363-0.2171-0.1764-0.53032-0.4431-0.69432-0.60193-0.24464-0.24622-0.7198-0.63917-1.3883-1.1642-0.39471-0.3057-2.2167-1.6056-2.2712-1.6152-0.03893-0.0073-0.10046-0.0669-0.1358-0.1377-0.04291-0.07225-0.16253-0.16686-0.26593-0.21776-0.1046-0.04344-0.5772-0.3634-1.053-0.70824-0.47466-0.3524-0.93933-0.67115-1.0273-0.7195-0.09534-0.04955-0.31256-0.22595-0.48285-0.39416-0.16913-0.17578-0.37273-0.38194-0.45465-0.46154-0.28711-0.27796-0.68793-0.6813-1.0258-1.0331-0.19092-0.18785-0.50964-0.5118-0.71466-0.71056-0.20654-0.19067-0.5-0.47754-0.64978-0.6261-0.14996-0.14804-0.38336-0.36804-0.5155-0.48074-0.58564-0.49374-1.7305-1.4922-2.0126-1.7533-0.17175-0.1604-0.41938-0.39113-0.55168-0.50363-0.23628-0.2044-0.8153-0.7775-1.021-1.0164-0.05225-0.0659-0.32587-0.3735-0.59662-0.69676-0.27203-0.31554-0.58667-0.6626-0.69562-0.77124-0.45886-0.43824-0.56134-0.5376-0.74238-0.6914-0.1054-0.0836-0.29137-0.25465-0.4207-0.3832-0.12287-0.1189-0.4723-0.4083-0.77558-0.641-0.36632-0.2843-0.69024-0.62535-0.97784-1.0321-0.54041-0.7833-0.62823-1.3146-0.45978-2.805 0.0702-0.55846 0.09436-1.0851 0.0711-1.1779-0.03252-0.0864-0.03277-0.3923-0.01397-0.6708 0.04932-0.6185-0.03633-1.6884-0.15283-1.8868-0.04157-0.0801-0.09375-0.323-0.1173-0.5448-0.14784-1.6527-0.23512-2.1435-0.45777-2.772-0.27857-0.80762-0.79071-2.6237-0.89833-3.2227-0.323-1.7495-0.27898-2.2968 0.19526-2.733 0.29846-0.26697 0.88709-0.44897 1.2452-0.38317 0.27234 0.0499 0.88464-0.12745 0.9967-0.30006 0.04273-0.05664 0.21772-0.7489 0.39448-1.5372 0.34478-1.5301 0.84735-3.2168 1.1653-3.8988 0.10657-0.2301 0.21197-0.5405 0.23761-0.6808 0.09143-0.4984 0.65369-1.152 1.4497-1.6742 0.40387-0.2717 0.77325-0.4858 0.81202-0.47874 0.04674 0.00879 0.2393-0.07666 0.44445-0.18371 0.1954-0.10105 0.45265-0.23095 0.55745-0.27615 0.10487-0.04514 0.52424-0.2257 0.92665-0.40146 1.2414-0.53684 1.5007-0.63428 1.8902-0.73987 0.1593-0.03504 0.60773-0.15417 0.98175-0.26233 0.38025-0.09949 0.72529-0.18128 0.77205-0.17261 0.08568 0.01577 1.194-0.28003 1.9648-0.53333 0.25641-0.0819 0.91023-0.26794 1.4436-0.4116 0.53486-0.1515 1.1205-0.31764 1.2906-0.36696 0.41107-0.13394 0.97925-0.02964 1.5557 0.29321 0.5124 0.27915 1.1906 0.74965 1.3426 0.93045 0.11249 0.13315 1.3918 1.1002 2.2257 1.6875 0.31396 0.2186 0.62042 0.43564 0.67554 0.48606 0.0551 0.05014 0.3098 0.24184 0.5658 0.42554 0.2561 0.18383 0.539 0.3966 0.638 0.47106 0.0976 0.08204 0.39184 0.32129 0.66546 0.54044 0.26739 0.21005 0.61532 0.5072 0.76516 0.6555 0.54438 0.54247 1.0042 0.8441 1.392 0.9233 0.47217 0.10244 0.6648 0.017 1.4603-0.63376 0.54095-0.448 0.75232-0.72304 1.1258-1.532 0.19825-0.42236 0.42725-2.1107 0.33357-2.4336-0.04585-0.14502-0.17384-0.76426-0.28626-1.3803-0.1203-0.618-0.28334-1.3962-0.36927-1.7178-0.08459-0.32924-0.16467-0.68201-0.17737-0.78894-0.0125-0.10706-0.11676-0.4158-0.2284-0.6857-0.28563-0.68015-0.29558-0.7141-0.60186-1.8086-0.36712-1.2904-0.4425-1.5376-0.56451-1.7936-0.06921-0.14942-0.16211-0.69776-0.24866-1.4541-0.03082-0.27126-0.06219-0.58266-0.08111-0.69886-0.04139-0.3456-0.48156-1.7623-0.63336-2.0315-0.07862-0.1433-0.2231-0.4515-0.3108-0.67675-0.0938-0.23435-0.22638-0.5647-0.30542-0.74815-0.34356-0.80324-0.50811-1.1796-0.55615-1.2689-0.03186-0.04602-0.08685-0.18496-0.12133-0.30386-0.03596-0.1113-0.16462-0.3766-0.28898-0.5766-0.22022-0.37814-0.47229-0.8912-0.67614-1.4037-0.29138-0.73718-0.46302-1.0744-0.72291-1.5003-0.44445-0.6928-0.96655-1.7063-1.3633-2.6161-0.37768-0.8821-0.73413-1.527-1.3982-2.5578-0.22474-0.35525-0.5603-0.93985-0.75074-1.3047-1.2328-2.4071-1.7532-3.2992-1.9403-3.3334-0.10108-0.0188-0.65314-1.1339-0.7461-1.5051-0.05792-0.21206-0.15563-0.6001-0.2205-0.86169-0.0647-0.26111-0.11104-0.5354-0.09956-0.59767 0.01136-0.0621-0.01447-0.3163-0.05731-0.56554-0.17908-0.99876 0.09191-2.3897 0.59577-3.1179 0.76342-1.0917 2.5192-1.4059 3.4291-0.6189 0.36841 0.31716 0.95647 1.0606 1.1619 1.4767 0.0882 0.17715 0.39917 0.6768 0.68232 1.1068 0.28198 0.43796 0.65918 1.0141 0.83581 1.2798 0.18286 0.27505 0.48975 0.70974 0.69402 0.9563 0.2027 0.2543 0.51777 0.7305 0.69084 1.0602 0.18066 0.33093 0.55376 0.9304 0.8338 1.3364 0.2735 0.3959 0.64783 0.9876 0.82208 1.3094 0.29738 0.52945 0.77558 1.301 1.1811 1.8986 0.0892 0.12904 0.20283 0.34315 0.25142 0.47255 0.05645 0.1311 0.17108 0.29685 0.26214 0.37012 0.40584 0.33193 1.4098 1.3528 1.711 1.73 0.97168 1.2408 2.0405 2.9172 2.319 3.6364 0.26763 0.6929 1.3801 2.4821 2.9128 4.7027 0.95377 1.3821 1.2107 1.8237 1.5656 2.7417 0.04229 0.12036 0.14917 0.5021 0.22308 0.8456 0.35889 1.5547 0.52832 1.9478 0.83966 2.0049 0.12463 0.02294 0.27338 0.00194 0.3316-0.05176 0.18982-0.1583 0.32038-0.73804 0.32563-1.4694-2.5e-4 -0.39441 0.06805-1.0741 0.14953-1.5177 0.07996-0.43614 0.13154-0.89354 0.10492-1.0111-0.01886-0.11596-6.8e-4 -0.61157 0.04126-1.1031 0.04169-0.4911 0.06256-1.2196 0.04541-1.6094-0.00793-0.39574 0.0033-0.85253 0.03467-1.0237 0.03155-0.1711 0.04333-0.5875 0.01918-0.93796-0.01802-0.34144-0.03175-1.1006-0.02376-1.6702 0.01446-1.1323 0.00574-1.48-0.04559-1.8594-0.02222-0.141-0.06975-0.58448-0.11665-0.98731-0.0376-0.40933-0.1087-0.85683-0.15294-1.0101-0.03803-0.1437-0.07806-0.4083-0.0871-0.5791-0.01946-0.728-0.09522-1.6754-0.14106-1.8204-0.03252-0.08676-0.04113-0.4342-0.0293-0.76196 0.02107-0.33435 0.00538-0.73145-0.0235-0.8816-0.038-0.1439-0.05382-0.45226-0.0465-0.66845 0.01178-0.23925-0.09503-0.79795-0.2613-1.384-0.18547-0.6134-0.28734-1.1551-0.27977-1.4597 0.00323-0.2809 0.15527-1.1545 0.36779-2.1376 0.34516-1.6188 0.36426-1.6798 0.65876-2.1003 0.37658-0.51857 1.0549-0.92555 1.795-1.0553 0.51563-0.09083 0.68188-0.0762 1.0449 0.09484l0.0011 2.6e-4zm-28.152 43.417c-0.33064 0.09227-0.66304 0.19237-0.73248 0.22022-0.50646 0.17248-1.0328 0.27725-1.3775 0.27065-0.7036-0.02456-1.1105 0.1743-1.5404 0.7638-0.41643 0.55893-0.77825 1.1284-0.7984 1.2375-0.01 0.05483-0.12993 0.31423-0.2719 0.56167-0.26697 0.49033-0.61017 0.78173-1.2222 1.0477-0.81125 0.3419-1.6021 0.7927-1.6789 0.9476-0.19532 0.40677 0.06121 0.808 0.9085 1.4542 0.52963 0.40305 0.97556 1.0882 1.4914 2.2696 0.07745 0.19115 0.5014 0.8644 0.9245 1.4971 0.42346 0.6333 0.83453 1.2882 0.9087 1.4544 0.28344 0.64758 0.42162 1.124 0.38878 1.303-0.08276 0.45142-0.02154 0.68796 0.23096 0.93542 0.14349 0.13894 0.35706 0.2909 0.47596 0.34497 0.1875 0.07471 0.37273 0.20507 1.2688 0.89257 0.11182 0.09254 0.31189 0.2743 0.43988 0.41066 0.12787 0.13564 0.33161 0.34228 0.45612 0.45349 0.12433 0.11155 0.43335 0.40149 0.6936 0.65039 0.57263 0.56336 1.7092 1.5205 1.8104 1.5388 0.04675 0.00854 0.1145 0.07754 0.15752 0.14944 0.128 0.2248 1.0072 0.3458 1.5234 0.20725 0.37262-0.10085 1.2514-0.59145 2.033-1.1244 0.12123-0.09036 0.4762-0.31516 0.77619-0.50171 0.29974-0.18628 0.88428-0.61025 1.297-0.9292 0.40606-0.32775 0.78961-0.61965 0.84344-0.6499 0.41028-0.26285 1.8949-1.6888 2.1619-2.0908 0.20636-0.2921 0.26736-0.7556 0.13463-0.9973-0.05926-0.11547-0.2556-0.53795-0.43114-0.9402-0.17578-0.40244-0.34961-0.7722-0.37848-0.83384-0.30358-0.53881-0.56763-1.1183-0.70166-1.5289-0.08662-0.27353-0.19538-0.55908-0.23694-0.63903-0.0509-0.07386-0.08058-0.1758-0.07336-0.2146 0.03278-0.1792-0.84572-1.6199-1.3414-2.2094-0.06647-0.07655-0.27075-0.32314-0.448-0.5409-0.32953-0.39845-0.92615-0.91847-1.0896-0.9485-0.1869-0.03405-1.9735-1.3518-2.4876-1.8403-0.21918-0.209-0.4209-0.3831-0.45198-0.3888-0.02336-0.0042-0.1555-0.11684-0.28643-0.2377-0.13707-0.1294-0.52032-0.4977-0.86251-0.82604-1.0267-0.98496-1.3583-1.2389-1.684-1.3064-0.12439-0.0227-0.49763 0.0376-0.82989 0.13757l0.00116 3.7e-4z"/> </g> <g fill="#fff"> <path d="m472.1 1041.4 33.288-12.871-8.1134-20.983-0.52295-1.3522-33.289 12.871 8.6366 22.336"/> </g> <path d="m477.09 998.34-39.727-22.565-2.7588 4.7892 39.951 22.295 2.3648-2.008z"/> <path d="m502.85 1017.1-13.785 5.4821-8.265 3.2867 0.00902 0.0018-16.271 6.4652 14.713 32.725 46.051-0.144q-11.222-23.908-22.453-47.817zm0.03387 4.8677v0.0018-0.0018l-0.0092 0.0018-8e-5 -0.0018zm2.8753 10.067c-0.05701 0.2967-0.15381 0.4747-0.30208 0.4747-0.00322-3e-4 -0.00652-7e-4 -0.00975-9e-4l-0.00727 0.0018c0.15107-0.0018 0.25032-0.1794 0.30939-0.4756z"/> <path d="m435.08 980.88-5.334-6.0208q3.9458 0.59396 7.8917 1.1884l-2.5577 4.8324"/> <path d="m441.96 1010h-1.4e-4 1.4e-4"/> </svg>